<?xml version="1.0" standalone="no"?>
<!DOCTYPE svg PUBLIC "-//W3C//DTD SVG 20010904//EN"
 "http://www.w3.org/TR/2001/REC-SVG-20010904/DTD/svg10.dtd">
<svg version="1.0" xmlns="http://www.w3.org/2000/svg"
 width="513.000000pt" height="513.000000pt" viewBox="0 0 513.000000 513.000000"
 preserveAspectRatio="xMidYMid meet">
<metadata>
Created by potrace 1.11, written by Peter Selinger 2001-2013
</metadata>
<g transform="translate(0.000000,513.000000) scale(0.100000,-0.100000)"
fill="#000000" stroke="none">
<path d="M1140 4066 c-252 -57 -456 -201 -588 -416 -53 -86 -104 -226 -121
-330 -17 -102 -14 -1365 3 -1460 18 -102 56 -206 108 -298 59 -105 224 -271
328 -329 93 -52 230 -98 333 -112 53 -8 627 -11 1781 -11 l1702 0 44 23 c56
28 83 76 77 137 -3 38 -28 83 -160 288 -175 270 -213 340 -250 457 -41 131
-47 225 -47 761 0 514 -3 563 -42 684 -43 134 -105 236 -207 344 -111 116
-225 186 -391 242 l-85 29 -1215 2 c-931 1 -1228 -2 -1270 -11z m462 -986
c105 -32 179 -109 212 -220 42 -142 -8 -338 -115 -452 -52 -56 -52 -56 41 -79
101 -24 355 -7 456 31 l24 10 -35 53 c-45 68 -71 137 -85 222 -28 174 66 348
219 406 156 59 358 -22 424 -170 61 -138 14 -353 -108 -486 -25 -27 -43 -50
-41 -52 2 -2 29 -13 62 -24 85 -30 211 -36 328 -14 53 9 96 19 96 21 0 2 -15
28 -34 57 -168 262 -78 576 183 643 149 38 312 -36 375 -170 77 -162 42 -353
-90 -495 l-55 -59 57 -8 c74 -9 174 2 243 27 112 41 126 43 159 30 37 -15 65
-69 56 -106 -13 -53 -104 -101 -249 -132 -136 -29 -348 -3 -446 54 -23 14 -33
13 -120 -15 -257 -82 -503 -67 -691 44 l-59 34 -102 -34 c-150 -51 -260 -69
-417 -69 -154 -1 -232 16 -368 78 l-81 37 -63 -21 c-148 -48 -426 -83 -493
-61 -43 14 -65 44 -65 88 0 74 45 102 167 102 71 0 261 25 271 35 3 3 -11 22
-31 44 -138 153 -140 398 -6 546 99 108 243 148 381 105z"/>
<path d="M1451 2900 c-118 -28 -174 -173 -114 -295 17 -33 112 -135 126 -135
5 0 31 16 58 36 70 51 113 141 114 239 0 63 -3 76 -28 108 -17 23 -41 40 -65
47 -41 11 -44 11 -91 0z"/>
<path d="M2360 2858 c-55 -38 -72 -81 -67 -168 2 -51 11 -89 25 -117 26 -50
79 -113 96 -113 22 0 115 105 136 153 30 67 36 143 17 190 -30 69 -142 99
-207 55z"/>
<path d="M3273 2840 c-70 -16 -108 -61 -119 -143 -11 -82 35 -206 98 -265 l25
-22 39 28 c51 37 92 86 115 137 22 48 25 142 5 189 -25 59 -94 91 -163 76z"/>
</g>
</svg>
